<svg width="27" height="26" viewBox="0 0 27 26" fill="none" xmlns="http://www.w3.org/2000/svg">
<path d="M24.6429 3.71429H15.3571V1.85714C15.3571 1.3646 15.1615 0.892226 14.8132 0.543944C14.4649 0.195663 13.9925 0 13.5 0H2.35714C1.8646 0 1.39223 0.195663 1.04394 0.543944C0.695663 0.892226 0.5 1.3646 0.5 1.85714V20.4286C0.5 20.9211 0.695663 21.3935 1.04394 21.7418C1.39223 22.09 1.8646 22.2857 2.35714 22.2857H11.6429V24.1429C11.6429 24.6354 11.8385 25.1078 12.1868 25.4561C12.5351 25.8043 13.0075 26 13.5 26H24.6429C25.1354 26 25.6078 25.8043 25.9561 25.4561C26.3043 25.1078 26.5 24.6354 26.5 24.1429V5.57143C26.5 5.07888 26.3043 4.60651 25.9561 4.25823C25.6078 3.90995 25.1354 3.71429 24.6429 3.71429ZM2.35714 12.0714H8.08643L5.69071 14.4764L7 15.7857L11.6429 11.1429L7 6.5L5.69071 7.80929L8.08643 10.2143H2.35714V1.85714H13.5V20.4286H2.35714V12.0714ZM13.5 24.1429V22.2857C13.9925 22.2857 14.4649 22.09 14.8132 21.7418C15.1615 21.3935 15.3571 20.9211 15.3571 20.4286V5.57143H24.6429V13.9286H18.9136L21.3093 11.5236L20 10.2143L15.3571 14.8571L20 19.5L21.3093 18.1907L18.9136 15.7857H24.6429V24.1429H13.5Z" fill="#2262C6"/>
</svg>
