<svg width="10" height="10" viewBox="0 0 10 10" fill="none" xmlns="http://www.w3.org/2000/svg">
<path d="M0.208953 0.218063C0.342786 0.0841551 0.524278 0.00892977 0.713518 0.00892977C0.902758 0.00892977 1.08425 0.0841551 1.21808 0.218063L4.99554 3.99878L8.77299 0.218063C8.83883 0.149841 8.91758 0.0954255 9.00465 0.0579905C9.09172 0.0205555 9.18537 0.000851124 9.28013 2.69691e-05C9.37489 -0.000797185 9.46886 0.0172755 9.55657 0.0531904C9.64428 0.0891053 9.72396 0.142143 9.79097 0.209209C9.85798 0.276276 9.91097 0.356027 9.94685 0.44381C9.98274 0.531593 10.0008 0.62565 9.99997 0.720492C9.99915 0.815335 9.97946 0.909063 9.94206 0.996209C9.90466 1.08335 9.85029 1.16217 9.78212 1.22806L6.00467 5.00878L9.78212 8.78949C9.91212 8.92421 9.98406 9.10464 9.98243 9.29192C9.98081 9.4792 9.90575 9.65836 9.77343 9.79079C9.64111 9.92323 9.46211 9.99835 9.27499 9.99997C9.08787 10.0016 8.90759 9.9296 8.77299 9.79949L4.99554 6.01878L1.21808 9.79949C1.08348 9.9296 0.903208 10.0016 0.716086 9.99997C0.528964 9.99835 0.349967 9.92323 0.217646 9.79079C0.0853262 9.65836 0.0102704 9.4792 0.00864433 9.29192C0.00701829 9.10464 0.0789522 8.92421 0.208953 8.78949L3.98641 5.00878L0.208953 1.22806C0.0751605 1.09411 0 0.912466 0 0.723063C0 0.53366 0.0751605 0.352011 0.208953 0.218063Z" fill="#FF5B60"/>
</svg>
