<svg width="24" height="26" viewBox="0 0 24 26" fill="none" xmlns="http://www.w3.org/2000/svg">
<path d="M5.2955 2.28571C5.53342 1.76325 5.97419 1.31094 6.55707 0.991122C7.13995 0.6713 7.83625 0.49971 8.55 0.5H15.45C16.1637 0.49971 16.86 0.6713 17.4429 0.991122C18.0258 1.31094 18.4666 1.76325 18.7045 2.28571H20.05C20.965 2.28571 21.8425 2.56792 22.4895 3.07025C23.1365 3.57258 23.5 4.25388 23.5 4.96429V22.8214C23.5 23.5318 23.1365 24.2131 22.4895 24.7155C21.8425 25.2178 20.965 25.5 20.05 25.5H3.95C3.035 25.5 2.15748 25.2178 1.51048 24.7155C0.863481 24.2131 0.5 23.5318 0.5 22.8214V4.96429C0.5 4.25388 0.863481 3.57258 1.51048 3.07025C2.15748 2.56792 3.035 2.28571 3.95 2.28571H5.2955ZM8.55 2.28571C8.245 2.28571 7.95249 2.37978 7.73683 2.54723C7.52116 2.71467 7.4 2.94177 7.4 3.17857C7.4 3.41537 7.52116 3.64247 7.73683 3.80992C7.95249 3.97736 8.245 4.07143 8.55 4.07143H15.45C15.755 4.07143 16.0475 3.97736 16.2632 3.80992C16.4788 3.64247 16.6 3.41537 16.6 3.17857C16.6 2.94177 16.4788 2.71467 16.2632 2.54723C16.0475 2.37978 15.755 2.28571 15.45 2.28571H8.55ZM9.7 12.1071C9.7 12.3439 9.82116 12.571 10.0368 12.7385C10.2525 12.9059 10.545 13 10.85 13H17.75C18.055 13 18.3475 12.9059 18.5632 12.7385C18.7788 12.571 18.9 12.3439 18.9 12.1071C18.9 11.8703 18.7788 11.6432 18.5632 11.4758C18.3475 11.3084 18.055 11.2143 17.75 11.2143H10.85C10.545 11.2143 10.2525 11.3084 10.0368 11.4758C9.82116 11.6432 9.7 11.8703 9.7 12.1071ZM9.7 17.4643C9.7 17.7011 9.82116 17.9282 10.0368 18.0956C10.2525 18.2631 10.545 18.3571 10.85 18.3571H17.75C18.055 18.3571 18.3475 18.2631 18.5632 18.0956C18.7788 17.9282 18.9 17.7011 18.9 17.4643C18.9 17.2275 18.7788 17.0004 18.5632 16.8329C18.3475 16.6655 18.055 16.5714 17.75 16.5714H10.85C10.545 16.5714 10.2525 16.6655 10.0368 16.8329C9.82116 17.0004 9.7 17.2275 9.7 17.4643ZM6.25 13C6.555 13 6.84751 12.9059 7.06317 12.7385C7.27884 12.571 7.4 12.3439 7.4 12.1071C7.4 11.8703 7.27884 11.6432 7.06317 11.4758C6.84751 11.3084 6.555 11.2143 6.25 11.2143C5.945 11.2143 5.65249 11.3084 5.43683 11.4758C5.22116 11.6432 5.1 11.8703 5.1 12.1071C5.1 12.3439 5.22116 12.571 5.43683 12.7385C5.65249 12.9059 5.945 13 6.25 13ZM6.25 18.3571C6.555 18.3571 6.84751 18.2631 7.06317 18.0956C7.27884 17.9282 7.4 17.7011 7.4 17.4643C7.4 17.2275 7.27884 17.0004 7.06317 16.8329C6.84751 16.6655 6.555 16.5714 6.25 16.5714C5.945 16.5714 5.65249 16.6655 5.43683 16.8329C5.22116 17.0004 5.1 17.2275 5.1 17.4643C5.1 17.7011 5.22116 17.9282 5.43683 18.0956C5.65249 18.2631 5.945 18.3571 6.25 18.3571Z" fill="#2262C6"/>
</svg>
