<svg width="21" height="22" viewBox="0 0 21 22" fill="none" xmlns="http://www.w3.org/2000/svg">
<path fill-rule="evenodd" clip-rule="evenodd" d="M14.6379 13.8985L20.0178 19.2783C20.2069 19.4676 20.3131 19.7242 20.313 19.9917C20.3129 20.2592 20.2065 20.5157 20.0173 20.7048C19.8281 20.8939 19.5715 21.0001 19.304 21C19.0365 20.9999 18.7799 20.8935 18.5908 20.7043L13.211 15.3244C11.6027 16.5701 9.58032 17.1563 7.55521 16.9638C5.53011 16.7712 3.6544 15.8145 2.30968 14.2881C0.964963 12.7617 0.252236 10.7803 0.316496 8.74712C0.380756 6.7139 1.21718 4.78152 2.6556 3.3431C4.09402 1.90468 6.0264 1.06826 8.05962 1.004C10.0928 0.939736 12.0742 1.65246 13.6006 2.99718C15.127 4.3419 16.0837 6.21761 16.2762 8.24271C16.4688 10.2678 15.8826 12.2902 14.6369 13.8985H14.6379ZM8.31307 14.9994C9.90434 14.9994 11.4304 14.3673 12.5556 13.2421C13.6808 12.1169 14.3129 10.5908 14.3129 8.99957C14.3129 7.40831 13.6808 5.88222 12.5556 4.75702C11.4304 3.63183 9.90434 2.9997 8.31307 2.9997C6.72181 2.9997 5.19572 3.63183 4.07052 4.75702C2.94533 5.88222 2.3132 7.40831 2.3132 8.99957C2.3132 10.5908 2.94533 12.1169 4.07052 13.2421C5.19572 14.3673 6.72181 14.9994 8.31307 14.9994Z" fill="#2262C6" stroke="#2262C6" stroke-width="0.5"/>
</svg>
